<svg width="17" height="17" viewBox="0 0 17 17" fill="none" xmlns="http://www.w3.org/2000/svg">
<g clip-path="url(#clip0_52_331)">
<path d="M8.49996 1.41663C4.58996 1.41663 1.41663 4.58996 1.41663 8.49996C1.41663 12.41 4.58996 15.5833 8.49996 15.5833C12.41 15.5833 15.5833 12.41 15.5833 8.49996C15.5833 4.58996 12.41 1.41663 8.49996 1.41663ZM8.49996 14.1666C5.36913 14.1666 2.83329 11.6308 2.83329 8.49996C2.83329 7.18954 3.27954 5.98538 4.03038 5.02913L11.9708 12.9695C11.0145 13.7204 9.81038 14.1666 8.49996 14.1666ZM12.9695 11.9708L5.02913 4.03038C5.98538 3.27954 7.18954 2.83329 8.49996 2.83329C11.6308 2.83329 14.1666 5.36913 14.1666 8.49996C14.1666 9.81038 13.7204 11.0145 12.9695 11.9708Z" fill="#6D1717"/>
</g>
<defs>
<clipPath id="clip0_52_331">
<rect width="17" height="17" fill="white"/>
</clipPath>
</defs>
</svg>
