<svg width="17" height="17" viewBox="0 0 17 17" fill="none" xmlns="http://www.w3.org/2000/svg">
<path d="M7.79175 12.0417H9.20841V7.79166H7.79175V12.0417ZM8.50008 1.41666C4.59008 1.41666 1.41675 4.58999 1.41675 8.49999C1.41675 12.41 4.59008 15.5833 8.50008 15.5833C12.4101 15.5833 15.5834 12.41 15.5834 8.49999C15.5834 4.58999 12.4101 1.41666 8.50008 1.41666ZM8.50008 14.1667C5.37633 14.1667 2.83341 11.6237 2.83341 8.49999C2.83341 5.37624 5.37633 2.83332 8.50008 2.83332C11.6238 2.83332 14.1667 5.37624 14.1667 8.49999C14.1667 11.6237 11.6238 14.1667 8.50008 14.1667ZM7.79175 6.37499H9.20841V4.95832H7.79175V6.37499Z" fill="#323232"/>
<path d="M7.79175 4.95834H9.20841V6.37501H7.79175V4.95834ZM7.79175 7.79168H9.20841V12.0417H7.79175V7.79168Z" fill="#323232"/>
<path d="M8.50008 1.41666C4.59008 1.41666 1.41675 4.58999 1.41675 8.49999C1.41675 12.41 4.59008 15.5833 8.50008 15.5833C12.4101 15.5833 15.5834 12.41 15.5834 8.49999C15.5834 4.58999 12.4101 1.41666 8.50008 1.41666ZM8.50008 14.1667C5.37633 14.1667 2.83341 11.6237 2.83341 8.49999C2.83341 5.37624 5.37633 2.83332 8.50008 2.83332C11.6238 2.83332 14.1667 5.37624 14.1667 8.49999C14.1667 11.6237 11.6238 14.1667 8.50008 14.1667Z" fill="#323232"/>
</svg>
