<svg width="31" height="31" viewBox="0 0 31 31" fill="none" xmlns="http://www.w3.org/2000/svg">
<g clip-path="url(#clip0_52_277)">
<path d="M25.8334 2.58331H10.3334C8.91254 2.58331 7.75004 3.74581 7.75004 5.16665V20.6666C7.75004 22.0875 8.91254 23.25 10.3334 23.25H25.8334C27.2542 23.25 28.4167 22.0875 28.4167 20.6666V5.16665C28.4167 3.74581 27.2542 2.58331 25.8334 2.58331ZM25.8334 20.6666H10.3334V5.16665H25.8334V20.6666ZM5.16671 7.74998H2.58337V25.8333C2.58337 27.2542 3.74587 28.4167 5.16671 28.4167H23.25V25.8333H5.16671V7.74998ZM20.6667 15.5V11.625C20.6667 10.9146 20.0855 10.3333 19.375 10.3333H16.7917V16.7916H19.375C20.0855 16.7916 20.6667 16.2104 20.6667 15.5ZM18.0834 11.625H19.375V15.5H18.0834V11.625ZM23.25 14.2083H24.5417V12.9166H23.25V11.625H24.5417V10.3333H21.9584V16.7916H23.25V14.2083ZM12.9167 14.2083H14.2084C14.9188 14.2083 15.5 13.6271 15.5 12.9166V11.625C15.5 10.9146 14.9188 10.3333 14.2084 10.3333H11.625V16.7916H12.9167V14.2083ZM12.9167 11.625H14.2084V12.9166H12.9167V11.625Z" fill="#6D1717"/>
</g>
<defs>
<clipPath id="clip0_52_277">
<rect width="31" height="31" fill="white"/>
</clipPath>
</defs>
</svg>
