<svg width="46" height="46" viewBox="0 0 46 46" fill="none" xmlns="http://www.w3.org/2000/svg">
<g clip-path="url(#clip0_32_33)">
<path d="M37.0875 19.2433C35.7842 12.6309 29.9767 7.66669 23 7.66669C17.4608 7.66669 12.65 10.81 10.2542 15.41C4.485 16.0234 0 20.9108 0 26.8333C0 33.1775 5.15583 38.3333 11.5 38.3333H36.4167C41.7067 38.3333 46 34.04 46 28.75C46 23.69 42.0708 19.5883 37.0875 19.2433ZM36.4167 34.5H11.5C7.26417 34.5 3.83333 31.0692 3.83333 26.8333C3.83333 22.9042 6.76583 19.6267 10.6567 19.2242L12.7075 19.0133L13.6658 17.1925C15.4867 13.685 19.0517 11.5 23 11.5C28.0217 11.5 32.3533 15.065 33.3308 19.9908L33.9058 22.8658L36.8383 23.0767C39.8283 23.2683 42.1667 25.7792 42.1667 28.75C42.1667 31.9125 39.5792 34.5 36.4167 34.5ZM15.3333 24.9167H20.2208V30.6667H25.7792V24.9167H30.6667L23 17.25L15.3333 24.9167Z" fill="#B0B0B0"/>
</g>
<defs>
<clipPath id="clip0_32_33">
<rect width="46" height="46" fill="white"/>
</clipPath>
</defs>
</svg>
