<svg width="17" height="13" viewBox="0 0 17 13" fill="none" xmlns="http://www.w3.org/2000/svg">
<path d="M15.2999 0H5.09998C4.16498 0 3.39998 0.576048 3.39998 1.28011V8.96074C3.39998 9.6648 4.16498 10.2409 5.09998 10.2409H15.2999C16.2349 10.2409 16.9999 9.6648 16.9999 8.96074V1.28011C16.9999 0.576048 16.2349 0 15.2999 0ZM15.2999 8.96074H5.09998V1.28011H15.2999V8.96074ZM1.69999 2.56021H0V11.521C0 12.225 0.764996 12.8011 1.69999 12.8011H13.5999V11.521H1.69999V2.56021ZM11.8999 6.40053V4.48037C11.8999 4.12834 11.5174 3.84032 11.0499 3.84032H9.34996V7.04058H11.0499C11.5174 7.04058 11.8999 6.75256 11.8999 6.40053ZM10.2 4.48037H11.0499V6.40053H10.2V4.48037ZM13.5999 5.76048H14.4499V5.12043H13.5999V4.48037H14.4499V3.84032H12.7499V7.04058H13.5999V5.76048ZM6.79997 5.76048H7.64996C8.11746 5.76048 8.49996 5.47245 8.49996 5.12043V4.48037C8.49996 4.12834 8.11746 3.84032 7.64996 3.84032H5.94997V7.04058H6.79997V5.76048ZM6.79997 4.48037H7.64996V5.12043H6.79997V4.48037Z" fill="#747373"/>
</svg>
