<svg width="18" height="18" viewBox="0 0 18 18" fill="none" xmlns="http://www.w3.org/2000/svg">
<g clip-path="url(#clip0_74_1058)">
<path d="M9 1.5C4.86 1.5 1.5 4.86 1.5 9C1.5 13.14 4.86 16.5 9 16.5C13.14 16.5 16.5 13.14 16.5 9C16.5 4.86 13.14 1.5 9 1.5ZM9 15C5.685 15 3 12.315 3 9C3 7.6125 3.4725 6.3375 4.2675 5.325L12.675 13.7325C11.6625 14.5275 10.3875 15 9 15ZM13.7325 12.675L5.325 4.2675C6.3375 3.4725 7.6125 3 9 3C12.315 3 15 5.685 15 9C15 10.3875 14.5275 11.6625 13.7325 12.675Z" fill="#747373"/>
</g>
<defs>
<clipPath id="clip0_74_1058">
<rect width="18" height="18" fill="white"/>
</clipPath>
</defs>
</svg>
