<svg width="20" height="20" viewBox="0 0 20 20" fill="none" xmlns="http://www.w3.org/2000/svg">
<g clip-path="url(#clip0_52_752)">
<path d="M9.99996 1.66663C5.39996 1.66663 1.66663 5.39996 1.66663 9.99996C1.66663 14.6 5.39996 18.3333 9.99996 18.3333C14.6 18.3333 18.3333 14.6 18.3333 9.99996C18.3333 5.39996 14.6 1.66663 9.99996 1.66663ZM9.99996 16.6666C6.31663 16.6666 3.33329 13.6833 3.33329 9.99996C3.33329 6.31663 6.31663 3.33329 9.99996 3.33329C13.6833 3.33329 16.6666 6.31663 16.6666 9.99996C16.6666 13.6833 13.6833 16.6666 9.99996 16.6666Z" fill="#323232"/>
<path d="M10 14.1667C12.3012 14.1667 14.1667 12.3012 14.1667 10C14.1667 7.69885 12.3012 5.83337 10 5.83337C7.69885 5.83337 5.83337 7.69885 5.83337 10C5.83337 12.3012 7.69885 14.1667 10 14.1667Z" fill="#323232"/>
</g>
<defs>
<clipPath id="clip0_52_752">
<rect width="20" height="20" fill="white"/>
</clipPath>
</defs>
</svg>
